<svg width="12" height="14" viewBox="0 0 12 14" fill="none" xmlns="http://www.w3.org/2000/svg">
<path fill-rule="evenodd" clip-rule="evenodd" d="M0.666672 3.66659C0.666672 1.82564 2.15906 0.333252 4 0.333252L8 0.333252C9.84095 0.333252 11.3333 1.82564 11.3333 3.66659L11.3333 11.4343C11.3333 13.143 9.3291 14.0648 8.03176 12.9528L6.43387 11.5832C6.18421 11.3692 5.8158 11.3692 5.56614 11.5832L3.96825 12.9528C2.67091 14.0648 0.666672 13.143 0.666672 11.4343L0.666672 3.66659ZM4 1.66659C2.89544 1.66659 2.00001 2.56202 2.00001 3.66659L2.00001 11.4343C2.00001 12.0039 2.66808 12.3111 3.10053 11.9405L4.69842 10.5708C5.4474 9.92886 6.55261 9.92886 7.30159 10.5708L8.89948 11.9405C9.33193 12.3111 10 12.0039 10 11.4343L10 3.66659C10 2.56202 9.10457 1.66659 8 1.66659L4 1.66659Z" fill="#939397"/>
</svg>
