<svg width="14" height="14" viewBox="0 0 14 14" fill="none" xmlns="http://www.w3.org/2000/svg">
<path fill-rule="evenodd" clip-rule="evenodd" d="M4.27272 1.66659C4.03842 1.66659 3.84848 1.85653 3.84848 2.09083V3.60598H4.23434C4.82199 3.60598 5.37076 3.89967 5.69673 4.38863L6.13993 5.05343C6.21861 5.17145 6.35108 5.24234 6.49292 5.24234H8.63636C10.2095 5.24234 11.4848 6.51765 11.4848 8.09083V8.90636C11.9874 8.65973 12.3333 8.14295 12.3333 7.54537V4.8181C12.3333 3.98131 11.655 3.30295 10.8182 3.30295H8.67474C8.08709 3.30295 7.53832 3.00926 7.21235 2.5203L6.76915 1.8555C6.69047 1.73748 6.55801 1.66659 6.41616 1.66659H4.27272ZM11.4848 10.3154C12.7364 10.0153 13.6667 8.88897 13.6667 7.54537V4.8181C13.6667 3.24493 12.3914 1.96962 10.8182 1.96962H8.67474C8.53289 1.96962 8.40043 1.89872 8.32175 1.7807L7.87855 1.1159C7.55258 0.626945 7.00381 0.333252 6.41616 0.333252H4.27272C3.30204 0.333252 2.51515 1.12015 2.51515 2.09083V3.60598H2.0909C1.12022 3.60598 0.333328 4.39287 0.333328 5.36355V10.8181C0.333328 12.3913 1.60864 13.6666 3.18181 13.6666H8.63636C10.2095 13.6666 11.4848 12.3913 11.4848 10.8181V10.3154ZM10.1515 8.09083C10.1515 7.25403 9.47315 6.57568 8.63636 6.57568H6.49292C5.90527 6.57568 5.3565 6.28198 5.03053 5.79303L4.58733 5.12823C4.50865 5.0102 4.37619 4.93931 4.23434 4.93931H2.0909C1.8566 4.93931 1.66666 5.12925 1.66666 5.36355V10.8181C1.66666 11.6549 2.34502 12.3333 3.18181 12.3333H8.63636C9.47315 12.3333 10.1515 11.6549 10.1515 10.8181V8.09083Z" fill="#939397"/>
</svg>
