<svg width="13" height="8" viewBox="0 0 13 8" fill="none" xmlns="http://www.w3.org/2000/svg">
<path fill-rule="evenodd" clip-rule="evenodd" d="M0.322796 0.0955301C0.523104 -0.0250715 0.771952 -0.0319227 0.978592 0.0774749L5.03704 2.22606V0.66667C5.03704 0.432858 5.15953 0.216135 5.35983 0.0955333C5.56014 -0.0250683 5.80899 -0.0319195 6.01563 0.0774781L12.3119 3.41081C12.5302 3.52635 12.6667 3.75306 12.6667 4C12.6667 4.24694 12.5302 4.47365 12.3119 4.58919L6.01563 7.92252C5.80899 8.03192 5.56014 8.02507 5.35983 7.90447C5.15952 7.78387 5.03704 7.56714 5.03704 7.33333L5.03704 5.77393L0.978592 7.92252C0.771952 8.03192 0.523104 8.02507 0.322796 7.90447C0.122488 7.78386 0 7.56714 0 7.33333L3.17891e-07 0.666667C3.57628e-07 0.432855 0.122488 0.216132 0.322796 0.0955301ZM5.03704 4.26528V3.73472L1.33333 1.77394L1.33333 6.22606L5.03704 4.26528ZM6.37037 1.77394L6.37037 6.22606L10.5752 4L6.37037 1.77394Z" fill="#939397"/>
</svg>
