<svg width="14" height="14" viewBox="0 0 14 14" fill="none" xmlns="http://www.w3.org/2000/svg">
<path fill-rule="evenodd" clip-rule="evenodd" d="M0.333328 3.66659C0.333328 1.82564 1.82571 0.333252 3.66666 0.333252H10.3333C12.1743 0.333252 13.6667 1.82564 13.6667 3.66659V10.3333C13.6667 12.1742 12.1743 13.6666 10.3333 13.6666H3.66666C1.82571 13.6666 0.333328 12.1742 0.333328 10.3333V3.66659ZM3.66666 1.66659C2.56209 1.66659 1.66666 2.56202 1.66666 3.66659V10.3333C1.66666 11.4378 2.56209 12.3333 3.66666 12.3333H10.3333C11.4379 12.3333 12.3333 11.4378 12.3333 10.3333V3.66659C12.3333 2.56202 11.4379 1.66659 10.3333 1.66659H3.66666ZM9 6.33325H5C4.63181 6.33325 4.33333 6.03478 4.33333 5.66659C4.33333 5.2984 4.63181 4.99992 5 4.99992L9 4.99992C9.36819 4.99992 9.66666 5.2984 9.66666 5.66658C9.66666 6.03477 9.36819 6.33325 9 6.33325ZM4.33333 8.33325C4.33333 7.96506 4.63181 7.66659 5 7.66659H9C9.36819 7.66659 9.66666 7.96506 9.66666 8.33325C9.66666 8.70144 9.36819 8.99992 9 8.99992H5C4.63181 8.99992 4.33333 8.70144 4.33333 8.33325Z" fill="#929397"/>
</svg>
