<svg width="14" height="14" viewBox="0 0 14 14" fill="none" xmlns="http://www.w3.org/2000/svg">
<path fill-rule="evenodd" clip-rule="evenodd" d="M12.2592 2.88897C12.5667 2.16407 11.8359 1.4332 11.111 1.74074L2.20045 5.52096C1.45648 5.83658 1.50059 6.90556 2.26804 7.15881L5.38753 8.18825C5.58814 8.25445 5.7455 8.41181 5.8117 8.61242L6.84113 11.7319C7.09439 12.4994 8.16337 12.5435 8.47899 11.7995L12.2592 2.88897ZM10.5902 0.513294C12.4188 -0.262461 14.2624 1.58114 13.4867 3.40971L9.70643 12.3202C8.91028 14.1969 6.2138 14.0856 5.57496 12.1497L4.65077 9.34917L1.8502 8.42499C-0.0856676 7.78615 -0.196934 5.08967 1.67972 4.29351L10.5902 0.513294Z" fill="#939397"/>
</svg>
