<svg width="14" height="14" viewBox="0 0 14 14" fill="none" xmlns="http://www.w3.org/2000/svg">
<path fill-rule="evenodd" clip-rule="evenodd" d="M6.22668 1.72215L6.05004 2.45529C5.78197 3.56785 4.63676 4.22903 3.53922 3.90491L2.81655 3.69149C2.49708 4.09483 2.23491 4.54515 2.04203 5.03015L2.58926 5.5503C3.41872 6.33873 3.41872 7.66111 2.58925 8.44954L2.04203 8.96969C2.23491 9.45468 2.49708 9.905 2.81655 10.3084L3.53922 10.0949C4.63676 9.7708 5.78197 10.432 6.05004 11.5445L6.22668 12.2777C6.47888 12.3143 6.73705 12.3333 7 12.3333C7.26295 12.3333 7.52113 12.3143 7.77333 12.2777L7.94997 11.5445C8.21804 10.432 9.36325 9.7708 10.4608 10.0949L11.1835 10.3084C11.5029 9.905 11.7651 9.45468 11.958 8.96969L11.4108 8.44954C10.5813 7.66111 10.5813 6.33873 11.4108 5.5503L11.958 5.03015C11.7651 4.54515 11.5029 4.09483 11.1835 3.69149L10.4608 3.90491C9.36325 4.22903 8.21804 3.56784 7.94997 2.45529L7.77332 1.72215C7.52113 1.68556 7.26295 1.66659 7 1.66659C6.73705 1.66659 6.47888 1.68556 6.22668 1.72215ZM5.5338 0.495149C6.00619 0.389083 6.49698 0.333252 7 0.333252C7.50303 0.333252 7.99381 0.389083 8.46621 0.495149C8.71408 0.550803 8.90877 0.742489 8.96828 0.989459L9.24621 2.14296C9.33557 2.51382 9.7173 2.73421 10.0831 2.62617L11.2197 2.29052C11.4631 2.21865 11.7261 2.29115 11.8983 2.47754C12.5613 3.19531 13.069 4.0599 13.3669 5.01784C13.4422 5.26014 13.3735 5.52421 13.1896 5.69903L12.3294 6.51671C12.0529 6.77952 12.0529 7.22031 12.3294 7.48313L13.1896 8.30081C13.3735 8.47563 13.4422 8.7397 13.3669 8.982C13.069 9.93994 12.5613 10.8045 11.8983 11.5223C11.7261 11.7087 11.4631 11.7812 11.2197 11.7093L10.0831 11.3737C9.7173 11.2656 9.33557 11.486 9.24621 11.8569L8.96828 13.0104C8.90877 13.2573 8.71408 13.449 8.46621 13.5047C7.99381 13.6108 7.50303 13.6666 7 13.6666C6.49698 13.6666 6.0062 13.6108 5.5338 13.5047C5.28593 13.449 5.09124 13.2573 5.03173 13.0104L4.7538 11.8569C4.66444 11.486 4.28271 11.2656 3.91686 11.3737L2.78029 11.7093C2.53695 11.7812 2.27391 11.7087 2.10175 11.5223C1.43876 10.8045 0.931054 9.93994 0.633125 8.982C0.557767 8.7397 0.626496 8.47562 0.810415 8.3008L1.67066 7.48312C1.94715 7.22031 1.94715 6.77952 1.67066 6.51671L0.810415 5.69903C0.626496 5.52421 0.557767 5.26014 0.633125 5.01784C0.931054 4.0599 1.43876 3.19532 2.10175 2.47754C2.27391 2.29115 2.53695 2.21865 2.78029 2.29052L3.91686 2.62617C4.28271 2.73421 4.66444 2.51382 4.7538 2.14296L5.03173 0.989459C5.09124 0.742489 5.28593 0.550803 5.5338 0.495149ZM7 5.66659C6.26363 5.66659 5.66667 6.26354 5.66667 6.99992C5.66667 7.7363 6.26363 8.33325 7 8.33325C7.73638 8.33325 8.33334 7.7363 8.33334 6.99992C8.33334 6.26354 7.73638 5.66659 7 5.66659ZM4.33334 6.99992C4.33334 5.52716 5.52725 4.33325 7 4.33325C8.47276 4.33325 9.66667 5.52716 9.66667 6.99992C9.66667 8.47268 8.47276 9.66658 7 9.66658C5.52725 9.66658 4.33334 8.47268 4.33334 6.99992Z" fill="#939397"/>
</svg>
