<svg width="14" height="14" viewBox="0 0 14 14" fill="none" xmlns="http://www.w3.org/2000/svg">
<path fill-rule="evenodd" clip-rule="evenodd" d="M7 1.66659C4.05448 1.66659 1.66666 4.0544 1.66666 6.99992C1.66666 8.39933 2.20537 9.67317 3.08799 10.6251C3.12131 10.5148 3.16563 10.4065 3.22345 10.3032C3.41944 9.95274 3.66669 9.6287 3.96005 9.34217C4.25447 9.05461 4.58663 8.81329 4.94489 8.62263C4.39924 8.10032 4.0581 7.37035 4.0581 6.55547C4.0581 4.94526 5.39013 3.66659 7 3.66659C8.60986 3.66659 9.94189 4.94526 9.94189 6.55547C9.94189 7.37035 9.60075 8.10032 9.0551 8.62263C9.41336 8.81329 9.74552 9.05462 10.0399 9.34217C10.3333 9.6287 10.5805 9.95274 10.7765 10.3032C10.8344 10.4065 10.8787 10.5148 10.912 10.6251C11.7946 9.67317 12.3333 8.39933 12.3333 6.99992C12.3333 4.0544 9.94551 1.66659 7 1.66659ZM9.62741 11.6424C9.65329 11.5092 9.66627 11.3842 9.66665 11.2734C9.66729 11.0905 9.63377 10.9914 9.61286 10.954C9.47915 10.715 9.31 10.493 9.1083 10.296C8.55177 9.75245 7.79367 9.44436 7 9.44436C6.20632 9.44436 5.44822 9.75245 4.89169 10.296C4.68999 10.493 4.52084 10.715 4.38713 10.954C4.36622 10.9914 4.3327 11.0905 4.33334 11.2734C4.33373 11.3842 4.3467 11.5092 4.37258 11.6424C5.14767 12.0821 6.04366 12.3333 7 12.3333C7.95633 12.3333 8.85232 12.0821 9.62741 11.6424ZM7 8.11103C7.90328 8.11103 8.60855 7.39986 8.60855 6.55547C8.60855 5.71109 7.90328 4.99992 7 4.99992C6.09671 4.99992 5.39144 5.71109 5.39144 6.55547C5.39144 7.39986 6.09671 8.11103 7 8.11103ZM0.333328 6.99992C0.333328 3.31802 3.3181 0.333252 7 0.333252C10.6819 0.333252 13.6667 3.31802 13.6667 6.99992C13.6667 9.37143 12.4279 11.4531 10.5653 12.634C9.53381 13.288 8.31009 13.6666 7 13.6666C5.6899 13.6666 4.46619 13.288 3.43467 12.634C1.57209 11.4531 0.333328 9.37143 0.333328 6.99992Z" fill="#939397"/>
</svg>
