<svg width="54" height="54" viewBox="0 0 54 54" fill="none" xmlns="http://www.w3.org/2000/svg">
<circle cx="27" cy="27" r="26" transform="rotate(180 27 27)" stroke="white" stroke-width="2"/>
<path d="M30.3647 35.4625L22.6417 28.1125C22.5501 28.025 22.485 27.9302 22.4465 27.8281C22.408 27.726 22.3891 27.6166 22.3897 27.5C22.3897 27.3833 22.4089 27.2739 22.4474 27.1719C22.4859 27.0698 22.5507 26.975 22.6417 26.8875L30.3647 19.5156C30.5786 19.3114 30.8459 19.2094 31.1667 19.2094C31.4876 19.2094 31.7626 19.3187 31.9917 19.5375C32.2209 19.7562 32.3355 20.0114 32.3355 20.3031C32.3355 20.5948 32.2209 20.85 31.9917 21.0687L25.2542 27.5L31.9917 33.9312C32.2056 34.1354 32.3126 34.3871 32.3126 34.6863C32.3126 34.9856 32.198 35.2443 31.9688 35.4625C31.7397 35.6812 31.4723 35.7906 31.1667 35.7906C30.8612 35.7906 30.5938 35.6812 30.3647 35.4625Z" fill="white"/>
</svg>
