<svg width="20" height="18" viewBox="0 0 20 18" fill="none" xmlns="http://www.w3.org/2000/svg">
<path fill-rule="evenodd" clip-rule="evenodd" d="M2.25 5C2.25 2.23857 4.48858 0 7.25 0H15C17.7614 0 20 2.23858 20 5V13C20 15.7614 17.7614 18 15 18H1C0.632506 18 0.29462 17.7984 0.120042 17.475C-0.0545365 17.1517 -0.0376755 16.7586 0.163953 16.4513L1.75815 14.0221C2.07904 13.5331 2.25 12.961 2.25 12.3761V5ZM7.25 2C5.59315 2 4.25 3.34314 4.25 5V12.3761C4.25 13.3509 3.96506 14.3044 3.43024 15.1194L2.85235 16H15C16.6569 16 18 14.6569 18 13V5C18 3.34315 16.6569 2 15 2H7.25Z" fill="#83AD8F"/>
</svg>
