<svg width="48" height="48" viewBox="0 0 48 48" fill="none" xmlns="http://www.w3.org/2000/svg">
<path d="M48 23.9998C48 37.2546 37.2548 47.9998 24 47.9998C10.7452 47.9998 0 37.2546 0 23.9998C0 10.7449 10.7452 -0.000244141 24 -0.000244141C37.2548 -0.000244141 48 10.7449 48 23.9998Z" fill="#EEEEEE"/>
<path d="M26.2 14.8748C24.9734 14.8748 23.797 15.362 22.9296 16.2294C22.0623 17.0967 21.575 18.2731 21.575 19.4998V22.0748H19.1C18.9757 22.0748 18.875 22.1755 18.875 22.2998V25.6998C18.875 25.824 18.9757 25.9248 19.1 25.9248H21.575V32.8998C21.575 33.024 21.6757 33.1248 21.8 33.1248H25.2C25.3243 33.1248 25.425 33.024 25.425 32.8998V25.9248H27.9219C28.0252 25.9248 28.1152 25.8545 28.1402 25.7543L28.9902 22.3543C29.0257 22.2123 28.9183 22.0748 28.7719 22.0748H25.425V19.4998C25.425 19.2942 25.5067 19.0971 25.652 18.9517C25.7973 18.8064 25.9945 18.7248 26.2 18.7248H28.8C28.9243 18.7248 29.025 18.624 29.025 18.4998V15.0998C29.025 14.9755 28.9243 14.8748 28.8 14.8748H26.2Z" fill="#0050C8"/>
</svg>
