<svg width="20" height="20" viewBox="0 0 20 20" fill="none" xmlns="http://www.w3.org/2000/svg">
<path d="M16.2508 8.12381C16.2508 9.91652 15.6687 11.5725 14.6882 12.9161L19.6338 17.8646C20.1221 18.3528 20.1221 19.1456 19.6338 19.6338C19.1455 20.1221 18.3525 20.1221 17.8642 19.6338L12.9186 14.6853C11.5748 15.6696 9.91845 16.2476 8.1254 16.2476C3.6369 16.2476 0 12.6114 0 8.12381C0 3.63619 3.6369 0 8.1254 0C12.6139 0 16.2508 3.63619 16.2508 8.12381ZM11.2505 6.87399C11.2505 5.14768 9.85204 3.74945 8.1254 3.74945C6.39875 3.74945 5.00024 5.14768 5.00024 6.87399C5.00024 8.77996 6.81674 11.2327 7.68006 12.2873C7.91445 12.5724 8.33634 12.5724 8.56682 12.2873C9.43015 11.2327 11.2466 8.77996 11.2466 6.87399H11.2505ZM6.87534 6.87399C6.87534 6.54252 7.00704 6.22463 7.24147 5.99024C7.4759 5.75585 7.79386 5.62418 8.1254 5.62418C8.45693 5.62418 8.77489 5.75585 9.00932 5.99024C9.24376 6.22463 9.37546 6.54252 9.37546 6.87399C9.37546 7.20546 9.24376 7.52336 9.00932 7.75775C8.77489 7.99213 8.45693 8.12381 8.1254 8.12381C7.79386 8.12381 7.4759 7.99213 7.24147 7.75775C7.00704 7.52336 6.87534 7.20546 6.87534 6.87399Z" fill="#8CC63E"/>
</svg>
