<svg width="48" height="48" viewBox="0 0 48 48" fill="none" xmlns="http://www.w3.org/2000/svg">
<path d="M48 23.9998C48 37.2546 37.2548 47.9998 24 47.9998C10.7452 47.9998 0 37.2546 0 23.9998C0 10.7449 10.7452 -0.000244141 24 -0.000244141C37.2548 -0.000244141 48 10.7449 48 23.9998Z" fill="#EEEEEE"/>
<path d="M24 20.7498C22.2051 20.7498 20.75 22.2049 20.75 23.9998C20.75 25.7947 22.2051 27.2498 24 27.2498C25.7949 27.2498 27.25 25.7947 27.25 23.9998C27.25 22.2049 25.7949 20.7498 24 20.7498Z" fill="url(#paint0_linear_1768_651)"/>
<path fill-rule="evenodd" clip-rule="evenodd" d="M18.7695 15.0813C22.2177 14.6959 25.7824 14.6959 29.2305 15.0813C31.1289 15.2934 32.6601 16.7892 32.8829 18.6943C33.2952 22.2193 33.2952 25.7803 32.8829 29.3053C32.6601 31.2104 31.1289 32.7062 29.2305 32.9183C25.7824 33.3037 22.2177 33.3037 18.7695 32.9183C16.8711 32.7062 15.3399 31.2104 15.1171 29.3053C14.7049 25.7803 14.7049 22.2193 15.1171 18.6943C15.3399 16.7892 16.8711 15.2934 18.7695 15.0813ZM29 17.9998C28.4477 17.9998 28 18.4475 28 18.9998C28 19.5521 28.4477 19.9998 29 19.9998C29.5523 19.9998 30 19.5521 30 18.9998C30 18.4475 29.5523 17.9998 29 17.9998ZM19.25 23.9998C19.25 21.3764 21.3766 19.2498 24 19.2498C26.6234 19.2498 28.75 21.3764 28.75 23.9998C28.75 26.6232 26.6234 28.7498 24 28.7498C21.3766 28.7498 19.25 26.6232 19.25 23.9998Z" fill="url(#paint1_linear_1768_651)"/>
<defs>
<linearGradient id="paint0_linear_1768_651" x1="24" y1="14.7922" x2="24" y2="33.2074" gradientUnits="userSpaceOnUse">
<stop stop-color="#D90505"/>
<stop offset="1" stop-color="#D9AA05"/>
</linearGradient>
<linearGradient id="paint1_linear_1768_651" x1="24" y1="14.7922" x2="24" y2="33.2074" gradientUnits="userSpaceOnUse">
<stop stop-color="#D90505"/>
<stop offset="1" stop-color="#D9AA05"/>
</linearGradient>
</defs>
</svg>
