<svg width="14" height="12" viewBox="0 0 14 12" fill="none" xmlns="http://www.w3.org/2000/svg">
<path fill-rule="evenodd" clip-rule="evenodd" d="M5.49909 2.56389C4.62235 1.68715 3.20088 1.68715 2.32414 2.56389C1.4474 3.44062 1.4474 4.86209 2.32414 5.73883L6.45223 9.86695C6.7547 10.1694 7.24512 10.1694 7.5476 9.86695L11.6757 5.73885C12.5524 4.86212 12.5524 3.44065 11.6757 2.56391C10.799 1.68717 9.37749 1.68717 8.50075 2.56391L7.47134 3.59332C7.21099 3.85367 6.78888 3.85367 6.52853 3.59332L5.49909 2.56389ZM1.38133 1.62108C2.77877 0.223637 5.04446 0.223639 6.4419 1.62108L6.99993 2.17911L7.55795 1.6211C8.95538 0.223662 11.2211 0.223663 12.6185 1.6211C14.0159 3.01854 14.0159 5.28423 12.6185 6.68166L8.49041 10.8098C7.66723 11.6329 6.33259 11.6329 5.50941 10.8098L1.38132 6.68164C-0.0161059 5.2842 -0.0161068 3.01851 1.38133 1.62108Z" fill="#83AD8F"/>
</svg>
