<svg width="20" height="20" viewBox="0 0 20 20" fill="none" xmlns="http://www.w3.org/2000/svg">
<path fill-rule="evenodd" clip-rule="evenodd" d="M17.8888 3.83358C18.3501 2.74622 17.2538 1.64992 16.1664 2.11123L2.80065 7.78156C1.68469 8.25499 1.75086 9.85846 2.90202 10.2383L7.58127 11.7825C7.88218 11.8818 8.11822 12.1178 8.21752 12.4187L9.76167 17.098C10.1416 18.2491 11.745 18.3153 12.2185 17.1994L17.8888 3.83358ZM15.3853 0.270062C18.1282 -0.893569 20.8936 1.87183 19.7299 4.61468L14.0596 17.9805C12.8654 20.7954 8.82067 20.6285 7.86241 17.7247L6.47613 13.5239L2.27527 12.1376C-0.628532 11.1793 -0.795432 7.13463 2.01955 5.94039L15.3853 0.270062Z" fill="#83AD8F"/>
</svg>
