<svg width="48" height="48" viewBox="0 0 48 48" fill="none" xmlns="http://www.w3.org/2000/svg">
<path d="M48 23.9998C48 37.2546 37.2548 47.9998 24 47.9998C10.7452 47.9998 0 37.2546 0 23.9998C0 10.7449 10.7452 -0.000244141 24 -0.000244141C37.2548 -0.000244141 48 10.7449 48 23.9998Z" fill="#EEEEEE"/>
<path d="M33.8097 18.227C33.8677 18.1462 33.7821 18.0419 33.6894 18.0779C33.0307 18.3332 32.3422 18.5055 31.64 18.5904C32.4219 18.1232 33.0253 17.4122 33.3599 16.5703C33.3939 16.4845 33.3003 16.4079 33.2195 16.4526C32.4928 16.8539 31.709 17.1429 30.8949 17.3093C30.8608 17.3163 30.8257 17.3047 30.8018 17.2794C30.1908 16.6348 29.3865 16.2055 28.5098 16.0572C27.6146 15.9058 26.6945 16.0557 25.8938 16.4835C25.093 16.9114 24.4569 17.5929 24.0852 18.4212C23.7318 19.2088 23.6365 20.0867 23.8108 20.9298C23.8243 20.9952 23.7731 21.057 23.7064 21.0528C22.1224 20.9544 20.5747 20.5331 19.1587 19.8142C17.7462 19.0971 16.4955 18.0996 15.4826 16.8831C15.4377 16.8291 15.3525 16.836 15.3197 16.8982C15.0046 17.4963 14.8395 18.1629 14.84 18.8404C14.8387 19.5147 15.0042 20.179 15.3218 20.7739C15.6393 21.3689 16.099 21.8761 16.66 22.2504C16.0651 22.2342 15.4817 22.0871 14.9512 21.8204C14.8829 21.7861 14.8009 21.835 14.8044 21.9114C14.8458 22.8007 15.1722 23.6934 15.7373 24.3783C16.3386 25.1072 17.1733 25.606 18.1 25.7904C17.7433 25.8989 17.3729 25.9562 17 25.9604C16.7971 25.958 16.5945 25.943 16.3935 25.9155C16.319 25.9053 16.2582 25.9761 16.2843 26.0467C16.5607 26.7942 17.049 27.4464 17.6911 27.9225C18.3775 28.4315 19.2056 28.7139 20.06 28.7304C18.6172 29.8656 16.8359 30.4852 15 30.4904C14.8114 30.491 14.6228 30.4849 14.4347 30.472C14.3287 30.4648 14.2799 30.6061 14.3713 30.6603C16.1601 31.7218 18.2046 32.2829 20.29 32.2804C21.8297 32.2963 23.3571 32.0054 24.7831 31.4244C26.2091 30.8435 27.505 29.9842 28.5952 28.8969C29.6854 27.8095 30.548 26.5157 31.1326 25.0913C31.7171 23.6668 32.012 22.1401 32 20.6004V20.1205C32 20.089 32.0149 20.0593 32.0401 20.0402C32.7184 19.5281 33.3149 18.9167 33.8097 18.227Z" fill="#68A4FF"/>
</svg>
