<svg width="48" height="48" viewBox="0 0 48 48" fill="none" xmlns="http://www.w3.org/2000/svg">
<path d="M48 23.9998C48 37.2546 37.2548 47.9998 24 47.9998C10.7452 47.9998 0 37.2546 0 23.9998C0 10.7449 10.7452 -0.000244141 24 -0.000244141C37.2548 -0.000244141 48 10.7449 48 23.9998Z" fill="#EEEEEE"/>
<path fill-rule="evenodd" clip-rule="evenodd" d="M18.9889 16.8903C22.3246 16.6293 25.6755 16.6293 29.0112 16.8903L31.2519 17.0656C32.5 17.1633 33.521 18.0986 33.7273 19.3334C34.2435 22.4229 34.2435 25.5767 33.7273 28.6662C33.521 29.9009 32.5 30.8363 31.2519 30.934L29.0112 31.1093C25.6755 31.3702 22.3246 31.3702 18.9889 31.1093L16.7482 30.934C15.5001 30.8363 14.4791 29.9009 14.2728 28.6662C13.7566 25.5767 13.7566 22.4229 14.2728 19.3334C14.4791 18.0986 15.5001 17.1633 16.7482 17.0656L18.9889 16.8903ZM22 26.4699V21.5296C22 21.2965 22.2544 21.1524 22.4543 21.2724L26.5713 23.7425C26.7655 23.8591 26.7655 24.1405 26.5713 24.257L22.4543 26.7272C22.2544 26.8472 22 26.7031 22 26.4699Z" fill="#FF0000"/>
</svg>
