<svg width="32" height="32" viewBox="0 0 32 32" fill="none" xmlns="http://www.w3.org/2000/svg">
<path fill-rule="evenodd" clip-rule="evenodd" d="M10.0003 1.33337C10.7367 1.33337 11.3337 1.93033 11.3337 2.66671V4.00004H20.667V2.66671C20.667 1.93033 21.2639 1.33337 22.0003 1.33337C22.7367 1.33337 23.3337 1.93033 23.3337 2.66671V4.03296C26.7025 4.36744 29.3337 7.20981 29.3337 10.6667V22.6667C29.3337 26.3486 26.3489 29.3334 22.667 29.3334H9.33366C5.65176 29.3334 2.66699 26.3486 2.66699 22.6667V10.6667C2.66699 7.20981 5.29811 4.36744 8.66699 4.03296V2.66671C8.66699 1.93033 9.26395 1.33337 10.0003 1.33337ZM5.56127 9.33337H26.4394C25.8903 7.77978 24.4086 6.66671 22.667 6.66671H9.33366C7.59203 6.66671 6.11038 7.77978 5.56127 9.33337ZM26.667 12H5.33366V22.6667C5.33366 24.8758 7.12452 26.6667 9.33366 26.6667H22.667C24.8761 26.6667 26.667 24.8758 26.667 22.6667V12Z" fill="black"/>
</svg>
