<svg width="32" height="32" viewBox="0 0 32 32" fill="none" xmlns="http://www.w3.org/2000/svg">
<path fill-rule="evenodd" clip-rule="evenodd" d="M26.6663 7.99992L5.33301 7.99992C4.59663 7.99992 3.99967 8.59687 3.99967 9.33325L3.99967 12.6666H27.9997L27.9997 9.33325C27.9997 8.59687 27.4027 7.99992 26.6663 7.99992ZM27.9997 15.3333H3.99968V22.6666C3.99968 23.403 4.59663 23.9999 5.33301 23.9999H26.6663C27.4027 23.9999 27.9997 23.403 27.9997 22.6666V15.3333ZM5.33301 5.33325L26.6663 5.33325C28.8755 5.33325 30.6663 7.12411 30.6663 9.33325L30.6663 22.6666C30.6663 24.8757 28.8755 26.6666 26.6663 26.6666L5.33301 26.6666C3.12387 26.6666 1.33301 24.8757 1.33301 22.6666L1.33301 9.33325C1.33301 7.12411 3.12387 5.33325 5.33301 5.33325Z" fill="black"/>
</svg>
