<svg width="24" height="24" viewBox="0 0 24 24" fill="none" xmlns="http://www.w3.org/2000/svg">
<path fill-rule="evenodd" clip-rule="evenodd" d="M14.9635 16.0242C12.3132 18.1468 8.43381 17.9798 5.97703 15.523C3.34099 12.8869 3.34099 8.61307 5.97703 5.97703C8.61307 3.34099 12.8869 3.34099 15.523 5.97703C17.9798 8.43381 18.1468 12.3132 16.0242 14.9635L19.0784 18.0178C19.3713 18.3107 19.3713 18.7855 19.0784 19.0784C18.7855 19.3713 18.3107 19.3713 18.0178 19.0784L14.9635 16.0242ZM7.03769 14.4623C4.98744 12.4121 4.98744 9.08794 7.03769 7.03769C9.08794 4.98744 12.4121 4.98744 14.4623 7.03769C16.5111 9.08644 16.5126 12.4072 14.4668 14.4578C14.4653 14.4593 14.4638 14.4608 14.4623 14.4623C14.4608 14.4638 14.4593 14.4653 14.4578 14.4668C12.4072 16.5126 9.08644 16.5111 7.03769 14.4623Z" fill="#ACACAC"/>
</svg>
